<?xml version="1.0" encoding="UTF-8" standalone="no"?> <svg xmlns="http://www.w3.org/2000/svg" viewBox="0 0 64 64"><g id="Layer_11" data-name="Layer 11"><path d="M6.89,11.09a5.1,5.1,0,0,1,3.74,1.62,9.1,9.1,0,0,0,12.6,0,5.14,5.14,0,0,1,7.49,0,9.1,9.1,0,0,0,12.6,0,5.14,5.14,0,0,1,7.49,0,8.94,8.94,0,0,0,6.3,2.55,2,2,0,0,0,0-4,5.09,5.09,0,0,1-3.75-1.63,9.08,9.08,0,0,0-12.6,0,5.12,5.12,0,0,1-7.49,0,9.08,9.08,0,0,0-12.6,0,5.11,5.11,0,0,1-7.48,0,9,9,0,0,0-6.3-2.54A2,2,0,0,0,6.89,11.09Z"/><path d="M57.11,25.14a5.08,5.08,0,0,1-3.75-1.62,9.1,9.1,0,0,0-12.6,0,5.14,5.14,0,0,1-7.49,0,9.12,9.12,0,0,0-12.6,0,5.12,5.12,0,0,1-7.48,0A9,9,0,0,0,6.89,21a2,2,0,0,0,0,4,5.06,5.06,0,0,1,3.74,1.62,9.08,9.08,0,0,0,12.6,0,5.14,5.14,0,0,1,7.49,0,9.08,9.08,0,0,0,12.6,0,5.14,5.14,0,0,1,7.49,0,9,9,0,0,0,6.3,2.54A2,2,0,0,0,57.11,25.14Z"/><path d="M57.11,39a5.08,5.08,0,0,1-3.75-1.62,9.12,9.12,0,0,0-12.6,0,5.14,5.14,0,0,1-7.49,0,9.12,9.12,0,0,0-12.6,0,5.11,5.11,0,0,1-7.48,0,9,9,0,0,0-6.3-2.54,2,2,0,0,0,0,4,5.06,5.06,0,0,1,3.74,1.62,9.08,9.08,0,0,0,12.6,0,5.14,5.14,0,0,1,7.49,0,9.08,9.08,0,0,0,12.6,0,5.14,5.14,0,0,1,7.49,0A9,9,0,0,0,57.11,43,2,2,0,0,0,57.11,39Z"/><path d="M57.11,52.91a5.12,5.12,0,0,1-3.75-1.62,9.1,9.1,0,0,0-12.6,0,5.14,5.14,0,0,1-7.49,0,9.1,9.1,0,0,0-12.6,0,5.12,5.12,0,0,1-7.48,0,8.94,8.94,0,0,0-6.3-2.55,2,2,0,0,0,0,4,5.07,5.07,0,0,1,3.74,1.63,9.08,9.08,0,0,0,12.6,0,5.12,5.12,0,0,1,7.49,0,9.08,9.08,0,0,0,12.6,0,5.12,5.12,0,0,1,7.49,0,9,9,0,0,0,6.3,2.54A2,2,0,0,0,57.11,52.91Z"/></g></svg>