<?xml version="1.0" encoding="UTF-8" standalone="no"?>
<svg
   width="33"
   height="42.881001"
   viewBox="0 0 33 42.881001"
   fill="none"
   version="1.1"
   id="svg16"
   sodipodi:docname="92f9ed4f53e69c5cf1477648aaf606ec.svg"
   xmlns:inkscape="http://www.inkscape.org/namespaces/inkscape"
   xmlns:sodipodi="http://sodipodi.sourceforge.net/DTD/sodipodi-0.dtd"
   xmlns="http://www.w3.org/2000/svg"
   xmlns:svg="http://www.w3.org/2000/svg">
  <sodipodi:namedview
     id="namedview18"
     pagecolor="#ffffff"
     bordercolor="#666666"
     borderopacity="1.0"
     inkscape:pageshadow="2"
     inkscape:pageopacity="0.0"
     inkscape:pagecheckerboard="0" />
  <path
     d="M 17.61,0.4785 C 17.4653,0.3272 17.2914,0.2069 17.0989,0.1246 16.9064,0.0424 16.6993,0 16.49,0 16.2806,0 16.0735,0.0424 15.881,0.1246 15.6885,0.2069 15.5147,0.3272 15.37,0.4785 c -0.62,0.7 -15.37,17.25 -15.37,26 0.9,21.87 32.08,21.87 33,0 -0.02,-8.75 -14.77,-25.3 -15.39,-26 z m -1.12,39.5 C 12.9113,39.9758 9.4801,38.5524 6.9505,36.0209 4.4209,33.4894 3,30.0572 3,26.4785 c 0,-5.8 8.89,-17.37 13.49,-22.73 4.6,5.37 13.49,16.94 13.49,22.73 0,3.5787 -1.421,7.0109 -3.9506,9.5424 -2.5295,2.5315 -5.9607,3.9549 -9.5394,3.9576 z"
     fill="url(#paint0_linear_123:2873)"
     id="id_121"
     style="fill:url(#paint0_linear_123:2873)" />
  <path
     d="m 16.4902,33.4785 c -1.8565,0 -3.637,-0.7375 -4.9497,-2.0503 -1.3128,-1.3127 -2.0503,-3.0932 -2.0503,-4.9497 0,-0.3978 -0.158,-0.7794 -0.4393,-1.0607 -0.2813,-0.2813 -0.6629,-0.4393 -1.0607,-0.4393 -0.3978,0 -0.7794,0.158 -1.0607,0.4393 -0.2813,0.2813 -0.4393,0.6629 -0.4393,1.0607 0,2.6522 1.0536,5.1957 2.9289,7.0711 1.8754,1.8753 4.4189,2.9289 7.0711,2.9289 0.3978,0 0.7794,-0.158 1.0607,-0.4393 0.2813,-0.2813 0.4393,-0.6629 0.4393,-1.0607 0,-0.3978 -0.158,-0.7794 -0.4393,-1.0607 -0.2813,-0.2813 -0.6629,-0.4393 -1.0607,-0.4393 z"
     fill="url(#paint1_linear_123:2873)"
     id="id_122"
     style="fill:url(#paint1_linear_123:2873)" />
  <defs
     id="defs14">
    <linearGradient
       id="paint0_linear_123:2873"
       x1="15.5098"
       y1="31.969999"
       x2="48.489799"
       y2="31.969999"
       gradientUnits="userSpaceOnUse"
       gradientTransform="translate(-15.5098,-10.5215)">
      <stop
         stop-color="#000000"
         id="id_123" />
      <stop
         offset="0.26"
         stop-color="#000000"
         id="id_124" />
      <stop
         offset="0.75"
         stop-color="#000000"
         id="id_125" />
      <stop
         offset="1"
         stop-color="#000000"
         id="id_126" />
    </linearGradient>
    <linearGradient
       id="paint1_linear_123:2873"
       x1="274.88501"
       y1="509.98999"
       x2="407.01999"
       y2="509.98999"
       gradientUnits="userSpaceOnUse"
       gradientTransform="translate(-15.5098,-10.5215)">
      <stop
         stop-color="#000000"
         id="id_127" />
      <stop
         offset="0.26"
         stop-color="#000000"
         id="id_128" />
      <stop
         offset="0.75"
         stop-color="#000000"
         id="id_129" />
      <stop
         offset="1"
         stop-color="#000000"
         id="id_130" />
    </linearGradient>
  </defs>
</svg>
